#N canvas 149 102 1645 917 10;
#X obj 250 82 loadbang;
#X msg 213 135 \; pd dsp 1;
#X floatatom 11 90 5 0 0 0 - - -;
#X floatatom 491 550 5 0 0 0 - - -;
#X obj 27 313 tabplay~;
#X obj 28 365 *~ 1;
#X floatatom 456 597 5 0 0 0 - - -;
#X floatatom 456 648 5 0 0 0 - - -;
#X msg 456 550 100;
#X obj 143 82 select 0 1;
#X msg 143 136 \; pd dsp 0;
#X obj 143 111 bng 15 250 50 0 empty empty empty 17 7 0 10 -262144
-1 -1;
#X obj 213 110 bng 15 250 50 0 empty empty empty 17 7 0 10 -262144
-1 -1;
#X obj 108 620 print;
#X obj 18 621 soundfiler;
#N canvas 836 456 530 469 listeLesSons 0;
#X obj 77 27 inlet;
#X obj 976 69 until;
#X obj 976 97 f;
#X obj 1014 97 + 1;
#X obj 1059 96 sel 0;
#X obj 1014 123 mod;
#X msg 975 38 32;
#X obj 986 79 until;
#X obj 986 107 f;
#X obj 1024 107 + 1;
#X obj 1069 106 sel 0;
#X obj 1024 133 mod;
#X msg 985 48 32;
#X obj 996 89 until;
#X obj 996 117 f;
#X obj 1034 117 + 1;
#X obj 1079 116 sel 0;
#X obj 1034 143 mod;
#X obj 1006 99 until;
#X obj 1006 127 f;
#X obj 1044 127 + 1;
#X obj 1089 126 sel 0;
#X obj 1044 153 mod;
#X obj 77 68 until;
#X obj 77 127 f;
#X obj 193 116 sel 0;
#X obj 140 150 mod;
#X obj 140 115 + 1;
#X msg 1020 486 read -resize -maxsize 1.6e+07 son\$1.wav buffer_son\$1
;
#X obj 1110 511 print;
#X obj 1020 512 soundfiler;
#X obj 1110 534 print;
#X obj 77 198 outlet;
#X obj 77 164 + 1;
#X connect 0 0 23 0;
#X connect 0 0 26 1;
#X connect 1 0 2 0;
#X connect 2 0 3 0;
#X connect 3 0 5 0;
#X connect 4 0 1 1;
#X connect 5 0 2 1;
#X connect 5 0 4 0;
#X connect 6 0 5 1;
#X connect 6 0 1 0;
#X connect 7 0 8 0;
#X connect 8 0 9 0;
#X connect 9 0 11 0;
#X connect 10 0 7 1;
#X connect 11 0 8 1;
#X connect 11 0 10 0;
#X connect 12 0 11 1;
#X connect 12 0 7 0;
#X connect 13 0 14 0;
#X connect 14 0 15 0;
#X connect 15 0 17 0;
#X connect 16 0 13 1;
#X connect 17 0 14 1;
#X connect 17 0 16 0;
#X connect 18 0 19 0;
#X connect 19 0 20 0;
#X connect 20 0 22 0;
#X connect 21 0 18 1;
#X connect 22 0 19 1;
#X connect 22 0 21 0;
#X connect 23 0 24 0;
#X connect 24 0 27 0;
#X connect 24 0 33 0;
#X connect 25 0 23 1;
#X connect 26 0 25 0;
#X connect 26 0 24 1;
#X connect 27 0 26 0;
#X connect 28 0 29 0;
#X connect 28 0 30 0;
#X connect 30 1 31 0;
#X connect 33 0 32 0;
#X restore 18 568 pd listeLesSons;
#X obj 18 496 bng 15 250 50 0 empty empty empty 17 7 0 10 -262144 -1
-1;
#X obj 456 502 loadbang;
#X msg 148 255 set buffer_son\$1;
#X floatatom 148 232 5 0 0 0 - - -;
#X obj 148 287 print;
#X obj 11 122 s sonChoisi;
#X obj 27 202 r sonChoisi;
#X obj 27 228 bng 15 250 50 0 empty empty empty 17 7 0 10 -262144 -1
-1;
#X obj 594 26 table buffer_son2;
#X obj 595 5 table buffer_son1;
#X obj 595 48 table buffer_son3;
#X obj 595 70 table buffer_son4;
#X obj 594 91 table buffer_son5;
#X obj 595 113 table buffer_son6;
#X obj 596 134 table buffer_son7;
#X obj 595 155 table buffer_son8;
#X obj 596 177 table buffer_son9;
#X obj 596 198 table buffer_son10;
#X obj 459 576 hsl 128 15 0 127 0 0 empty empty empty -2 -8 0 10 -262144
-1 -1 10000 1;
#X obj 456 619 dbtorms;
#X obj 146 465 dac~;
#X obj 45 90 s niveau;
#X obj 491 525 r niveau;
#X obj 716 6 table buffer_son11;
#X obj 715 27 table buffer_son12;
#X obj 716 49 table buffer_son13;
#X obj 716 71 table buffer_son14;
#X obj 715 92 table buffer_son15;
#X obj 716 114 table buffer_son16;
#X obj 717 135 table buffer_son17;
#X obj 716 156 table buffer_son18;
#X obj 717 178 table buffer_son19;
#X obj 717 200 table buffer_son20;
#X obj 841 6 table buffer_son21;
#X obj 840 27 table buffer_son22;
#X obj 841 49 table buffer_son23;
#X obj 841 71 table buffer_son24;
#X obj 840 92 table buffer_son25;
#X obj 841 114 table buffer_son26;
#X obj 842 135 table buffer_son27;
#X obj 841 155 table buffer_son28;
#X obj 842 178 table buffer_son29;
#X obj 842 199 table buffer_son30;
#X text 12 475 Chargement des sons;
#X text 29 183 Jeu des sons;
#X text 52 525 Le nombre de sons que l'on veut charger doit correpondre
au nombre de buffers;
#X text 9 22 Sélection des sons avec synchronisation;
#X msg 393 250 symbol buffer_son\$1;
#X text 133 50 Allumage de l'audio à l'ouverture ou commande OSC startDSP
;
#X obj 75 649 unpack 0 0 0 0;
#X obj 86 673 s bitrate;
#X obj 75 695 print bitrate;
#X obj 456 677 s niveauDB;
#X obj 49 339 r niveauDB;
#N canvas 636 521 742 363 calculRetard 0;
#X obj 90 48 expr size("$s1");
#X obj 90 77 print array size;
#N canvas 991 201 450 300 calculDureeEchantillon 0;
#X obj 95 15 inlet;
#X obj 161 15 loadbang;
#X msg 161 42 1000;
#X obj 660 438 /;
#X floatatom 661 462 15 0 0 0 - - -;
#X msg 660 362 1;
#X obj 707 409 t b f;
#X obj 660 409 f;
#X floatatom 660 385 5 0 0 0 - - -;
#X obj 661 484 s dureeEch;
#X obj 706 376 /;
#X msg 97 86 1;
#X floatatom 97 110 5 0 0 0 - - -;
#X obj 97 132 f;
#X obj 96 155 /;
#X floatatom 96 180 15 0 0 0 - - -;
#X obj 96 210 outlet;
#X obj 146 133 t b f;
#X obj 146 108 /;
#X connect 0 0 18 0;
#X connect 0 0 2 0;
#X connect 1 0 2 0;
#X connect 2 0 18 1;
#X connect 3 0 4 0;
#X connect 4 0 9 0;
#X connect 5 0 8 0;
#X connect 6 0 5 0;
#X connect 6 1 3 1;
#X connect 7 0 3 0;
#X connect 8 0 7 0;
#X connect 10 0 6 0;
#X connect 11 0 12 0;
#X connect 12 0 13 0;
#X connect 13 0 14 0;
#X connect 14 0 15 0;
#X connect 15 0 16 0;
#X connect 17 0 11 0;
#X connect 17 1 14 1;
#X connect 18 0 17 0;
#X restore 245 50 pd calculDureeEchantillon;
#X obj 245 78 print duree ech.;
#X obj 182 132 *;
#X obj 182 162 -;
#X obj 232 120 loadbang;
#X text 264 143 Ramp en fin de son;
#X obj 245 6 inlet;
#X obj 90 7 inlet;
#X obj 182 224 outlet;
#X floatatom 182 195 5 0 0 0 - - -;
#X msg 232 144 50;
#X connect 0 0 1 0;
#X connect 0 0 4 0;
#X connect 2 0 3 0;
#X connect 2 0 4 1;
#X connect 4 0 5 0;
#X connect 5 0 11 0;
#X connect 6 0 12 0;
#X connect 8 0 2 0;
#X connect 9 0 0 0;
#X connect 11 0 10 0;
#X connect 12 0 5 1;
#X restore 393 280 pd calculRetard;
#X obj 366 316 delay;
#X obj 285 373 line~;
#X obj 144 402 *~;
#X msg 285 342 1;
#X obj 40 257 s bangSonChoisi;
#X obj 280 197 r bangSonChoisi;
#X floatatom 366 377 5 0 0 0 - - -;
#X obj 134 340 bng 15 250 50 0 empty empty empty 17 7 0 10 -262144
-1 -1;
#X obj 295 315 loadbang;
#X text 442 476 Positionnement du niveau;
#X obj 393 197 r sonChoisi;
#X obj 285 294 bng 15 250 50 0 empty empty empty 17 7 0 10 -262144
-1 -1;
#X text 347 177 Fade out du son;
#X text 401 341 La ramp doit etre conforme au calcul du retard;
#X floatatom 393 225 5 0 0 0 - - -;
#X msg 540 251 44100;
#X obj 540 227 loadbang;
#X floatatom 796 329 5 0 0 0 - - -;
#X obj 802 468 tabread mytab1;
#X obj 864 572 - 0;
#X obj 897 437 + 1;
#X obj 897 465 tabread mytab1;
#X obj 817 518 t f f;
#X obj 816 782 print message;
#X obj 151 190 loadbang;
#X obj 204 320 osc~ 440;
#X msg 175 565 1;
#X msg 23 282 300000 100000;
#X obj 810 733 pack f f;
#X obj 900 631 * -1;
#X msg 667 242 \; mytab1 read slicepoints2.txt;
#X msg 1024 178 \; mytab1 read slicepoints.txt;
#X msg 234 757 2;
#X text 219 783 synthelab;
#X obj 53 797 loadbang;
#X msg 150 212 2;
#X obj 22 404 loadbang;
#X obj 178 482 bng 15 250 50 0 empty empty empty 17 7 0 10 -262144
-1 -1;
#X obj 267 655 print sorttttttttt;
#X obj 24 442 delay 5000;
#X msg 18 595 read -resize -maxsize 1.6e+07 son\$1.wav buffer_son\$1
;
#X floatatom 238 471 5 0 0 0 - - -;
#X obj 304 428 loadbang;
#X msg 312 453 13;
#X obj 3 241 r player;
#X msg 257 833 \; mytab1 read son2.txt;
#X msg 55 824 \; mytab1 read flutebuf13son5.txt;
#X obj 804 355 t b f f;
#X obj 691 390 s bangSonChoisi;
#X obj 795 287 bng 15 250 50 0 empty empty empty 17 7 0 10 -262144
-1 -1;
#X obj 334 346 bng 15 250 50 0 empty empty empty 17 7 0 10 -262144
-1 -1;
#X obj 314 271 bng 15 250 50 0 empty empty empty 17 7 0 10 -262144
-1 -1;
#X floatatom 419 327 5 0 0 0 - - -;
#X obj 899 669 / 44.1;
#X obj 89 2043 *~;
#X obj 208 356 *~ 0;
#X obj 249 349 tgl 15 0 empty empty empty 0 -6 0 8 -262144 -1 -1 0
1;
#X obj 1216 207 oscparse;
#X obj 1241 240 print parse-output;
#X obj 1215 185 netreceive -u -b;
#X msg 1215 158 listen 5000;
#X obj 1215 125 loadbang;
#X obj 928 730 s delay;
#X obj 416 303 r delay;
#X obj 1205 297 route list;
#X obj 1306 320 print parse-output2;
#X obj 1223 408 print parse-output3;
#X obj 1195 335 route index;
#X obj 1013 730 freeverb~;
#X obj 1102 552 rev2~;
#X floatatom 517 789 0 0 120 0 - - -;
#X text 558 789 level \, dB;
#X floatatom 561 813 0 0 100 0 - - -;
#X text 602 813 liveness \, 0-100;
#X floatatom 605 839 0 0 120 0 - - -;
#X floatatom 649 863 0 0 120 0 - - -;
#X text 636 839 crossover frequency \, Hz.;
#X text 682 864 HF damping \, percent;
#X obj 474 894 rev2~ 100 90 3000 20;
#X obj 424 927 s~ todac;
#X obj 93 368 r~ todac;
#X obj 467 735 osc~ 440;
#X obj 154 436 s~ torevb;
#X obj 444 848 r~ torevb;
#X msg 1011 670 1.23457e+10;
#X msg 73 902 \; mytab1 read son1slicepoints.txt;
#X obj 667 291 table mytab1 125;
#N canvas 353 237 317 176 group 0;
#X obj 31 22 oscparse;
#X obj 136 26 oscformat;
#X obj 41 32 oscparse;
#X obj 146 36 oscformat;
#X restore 1020 67 pd group;
#X msg 71 968 \; mytab1 read son2slicepoints.txt;
#X msg 366 347 0 20;
#X obj 922 700 - 20;
#X obj 1226 568 readsf~;
#X msg 18 531 21;
#X msg 1276 762 1;
#X text 1307 761 1 starts playback;
#X msg 1253 712 open ./sound/son2.wav \, 1;
#X text 1357 791 1 starts playback;
#X msg 1326 792 0;
#X obj 1148 711 print message;
#X obj 826 792 print message;
#X obj 1415 557 * 44100;
#X obj 1276 844 readsf~ 1 1e+06, f 63;
#X obj 1512 557 * 1000;
#X obj 1436 677 del;
#X obj 1449 605 t b i;
#X obj 1453 478 unpack i i i;
#X msg 1259 635 open ./sound/son\$1.wav \$2 \, 1;
#X obj 1288 573 pack i i;
#X msg 1400 392 20 7 2;
#N canvas 826 448 530 469 listeLesSons 0;
#X obj 77 27 inlet;
#X obj 976 69 until;
#X obj 976 97 f;
#X obj 1014 97 + 1;
#X obj 1059 96 sel 0;
#X obj 1014 123 mod;
#X msg 975 38 32;
#X obj 986 79 until;
#X obj 986 107 f;
#X obj 1024 107 + 1;
#X obj 1069 106 sel 0;
#X obj 1024 133 mod;
#X msg 985 48 32;
#X obj 996 89 until;
#X obj 996 117 f;
#X obj 1034 117 + 1;
#X obj 1079 116 sel 0;
#X obj 1034 143 mod;
#X obj 1006 99 until;
#X obj 1006 127 f;
#X obj 1044 127 + 1;
#X obj 1089 126 sel 0;
#X obj 1044 153 mod;
#X obj 77 68 until;
#X obj 77 127 f;
#X obj 193 116 sel 0;
#X obj 140 150 mod;
#X obj 140 115 + 1;
#X msg 1020 486 read -resize -maxsize 1.6e+07 son\$1.wav buffer_son\$1
;
#X obj 1110 511 print;
#X obj 1020 512 soundfiler;
#X obj 1110 534 print;
#X obj 77 198 outlet;
#X obj 77 164 + 1;
#X obj 37 37;
#X connect 0 0 23 0;
#X connect 0 0 26 1;
#X connect 1 0 2 0;
#X connect 2 0 3 0;
#X connect 3 0 5 0;
#X connect 4 0 1 1;
#X connect 5 0 2 1;
#X connect 5 0 4 0;
#X connect 6 0 5 1;
#X connect 6 0 1 0;
#X connect 7 0 8 0;
#X connect 8 0 9 0;
#X connect 9 0 11 0;
#X connect 10 0 7 1;
#X connect 11 0 8 1;
#X connect 11 0 10 0;
#X connect 12 0 11 1;
#X connect 12 0 7 0;
#X connect 13 0 14 0;
#X connect 14 0 15 0;
#X connect 15 0 17 0;
#X connect 16 0 13 1;
#X connect 17 0 14 1;
#X connect 17 0 16 0;
#X connect 18 0 19 0;
#X connect 19 0 20 0;
#X connect 20 0 22 0;
#X connect 21 0 18 1;
#X connect 22 0 19 1;
#X connect 22 0 21 0;
#X connect 23 0 24 0;
#X connect 24 0 27 0;
#X connect 24 0 33 0;
#X connect 25 0 23 1;
#X connect 26 0 25 0;
#X connect 26 0 24 1;
#X connect 27 0 26 0;
#X connect 28 0 29 0;
#X connect 28 0 30 0;
#X connect 30 1 31 0;
#X connect 33 0 32 0;
#X restore 1425 91 pd listeLesSons;
#X floatatom 1426 40 5 0 0 0 - - -;
#X obj 1420 178 print;
#X connect 0 0 1 0;
#X connect 2 0 21 0;
#X connect 3 0 34 0;
#X connect 4 0 5 0;
#X connect 4 1 78 0;
#X connect 5 0 73 0;
#X connect 6 0 35 0;
#X connect 7 0 68 0;
#X connect 8 0 34 0;
#X connect 9 0 11 0;
#X connect 9 1 12 0;
#X connect 11 0 10 0;
#X connect 12 0 1 0;
#X connect 14 1 65 0;
#X connect 15 0 111 0;
#X connect 15 0 109 0;
#X connect 16 0 163 0;
#X connect 17 0 8 0;
#X connect 18 0 20 0;
#X connect 18 0 4 0;
#X connect 19 0 18 0;
#X connect 22 0 19 0;
#X connect 22 0 23 0;
#X connect 23 0 75 0;
#X connect 34 0 6 0;
#X connect 35 0 7 0;
#X connect 38 0 3 0;
#X connect 63 0 70 0;
#X connect 65 0 66 0;
#X connect 65 0 67 0;
#X connect 69 0 5 1;
#X connect 71 0 160 0;
#X connect 71 0 121 0;
#X connect 72 0 73 1;
#X connect 73 0 153 0;
#X connect 74 0 72 0;
#X connect 76 0 82 0;
#X connect 76 0 70 0;
#X connect 76 0 122 0;
#X connect 79 0 74 0;
#X connect 81 0 85 0;
#X connect 82 0 74 0;
#X connect 85 0 63 0;
#X connect 86 0 70 1;
#X connect 87 0 86 0;
#X connect 88 0 118 0;
#X connect 89 0 93 0;
#X connect 90 0 100 0;
#X connect 91 0 92 0;
#X connect 92 0 90 1;
#X connect 93 0 99 0;
#X connect 93 1 90 0;
#X connect 95 0 106 0;
#X connect 96 0 126 0;
#X connect 97 0 111 0;
#X connect 98 0 4 0;
#X connect 99 0 94 0;
#X connect 99 0 4 0;
#X connect 100 0 99 1;
#X connect 100 0 124 0;
#X connect 103 0 111 0;
#X connect 105 0 117 0;
#X connect 106 0 19 0;
#X connect 107 0 110 0;
#X connect 108 0 97 0;
#X connect 108 0 103 0;
#X connect 110 0 16 0;
#X connect 111 0 13 0;
#X connect 111 0 14 0;
#X connect 112 0 111 0;
#X connect 112 0 19 0;
#X connect 113 0 114 0;
#X connect 114 0 112 0;
#X connect 115 0 4 0;
#X connect 118 0 119 0;
#X connect 118 1 89 0;
#X connect 118 2 91 0;
#X connect 120 0 88 0;
#X connect 122 0 71 0;
#X connect 123 0 71 1;
#X connect 124 0 161 0;
#X connect 126 0 36 1;
#X connect 127 0 126 1;
#X connect 128 0 129 0;
#X connect 128 0 135 0;
#X connect 130 0 128 0;
#X connect 131 0 130 0;
#X connect 132 0 131 0;
#X connect 134 0 123 0;
#X connect 135 0 136 0;
#X connect 135 0 138 0;
#X connect 138 0 88 0;
#X connect 138 0 137 0;
#X connect 141 0 149 1;
#X connect 143 0 149 2;
#X connect 145 0 149 3;
#X connect 146 0 149 4;
#X connect 149 0 150 0;
#X connect 151 0 36 0;
#X connect 154 0 149 0;
#X connect 154 0 150 0;
#X connect 155 0 94 0;
#X connect 160 0 77 0;
#X connect 160 0 72 0;
#X connect 161 0 133 0;
#X connect 163 0 15 0;
#X connect 164 0 172 0;
#X connect 166 0 172 0;
#X connect 168 0 172 0;
#X connect 171 0 178 1;
#X connect 172 0 36 1;
#X connect 173 0 175 0;
#X connect 174 0 168 0;
#X connect 175 0 174 0;
#X connect 175 1 174 1;
#X connect 176 0 178 0;
#X connect 176 1 171 0;
#X connect 176 2 173 0;
#X connect 177 0 169 0;
#X connect 177 0 172 0;
#X connect 178 0 177 0;
#X connect 179 0 176 0;
#X connect 180 0 182 0;
#X connect 181 0 180 0;
