#N canvas 177 103 1733 895 12;
#X obj 139 247 t b b;
#X obj 139 342 del 200;
#X msg 140 421 open A.aif;
#X obj 162 495 readsf~;
#X obj 163 563 dac~;
#X msg 234 335 1;
#X obj 327 241 t b b;
#X obj 327 336 del 200;
#X obj 350 489 readsf~;
#X obj 351 557 dac~;
#X msg 422 329 1;
#X msg 328 415 open B.aif;
#X msg 750 106 tempo \$1;
#X msg 564 106 resolution \$1;
#X msg 660 106 reset \$1 \$2;
#X obj 660 85 pack f f;
#X floatatom 594 232 5 0 0 1 beat_time - - 0;
#X floatatom 566 253 5 0 0 1 phase - - 0;
#X msg 435 206 \; pd dsp 1;
#X floatatom 539 281 5 0 0 1 step - - 0;
#X floatatom 622 210 5 0 0 1 tempo - - 0;
#X obj 421 86 tgl 15 0 empty empty empty 17 7 0 10 #fcfcfc #000000
#000000 0 1;
#X obj 539 169 abl_link~ 1 0 4 134;
#X floatatom 750 87 5 0 0 2 tempo - - 0;
#X floatatom 705 66 5 0 0 2 quantum - - 0;
#X floatatom 660 66 5 0 0 2 beat - - 0;
#X floatatom 564 86 5 0 0 2 resolution - - 0;
#X msg 421 107 connect \$1;
#X floatatom 647 300 5 0 0 0 - - - 0;
#X obj 647 278 r #abl_link_num_peers;
#X floatatom 650 191 5 0 0 1 is_playing - - 0;
#X obj 504 86 tgl 15 0 empty empty empty 17 7 0 10 #fcfcfc #000000
#000000 0 1;
#X msg 504 106 play \$1;
#X floatatom 820 87 5 0 0 0 - - - 0;
#X msg 820 106 offset \$1;
#X obj 533 366 sel 1 2 3 4;
#X obj 551 332 + 1;
#X obj 990 124 mrpeach/udpreceive 9888;
#X obj 990 176 mrpeach/unpackOSC;
#X floatatom 1074 263 5 0 0 0 - - - 0;
#X floatatom 982 601 5 0 0 0 - - - 0;
#X obj 901 405 - 1;
#X obj 916 447 abs;
#X msg 1077 348 117.6;
#X obj 987 719 bng 15 250 50 0 empty empty empty 17 7 0 10 #fcfcfc
#000000 #000000;
#X obj 1118 735 bng 15 250 50 0 empty empty empty 17 7 0 10 #fcfcfc
#000000 #000000;
#X obj 1247 753 bng 15 250 50 0 empty empty empty 17 7 0 10 #fcfcfc
#000000 #000000;
#X msg 1076 309 set \$1;
#X obj 689 594 expr $f2 + $f1*$f2;
#X floatatom 718 633 5 0 0 0 - - - 0;
#X obj 674 490 * 0.1;
#X obj 986 215 mrpeach/routeOSC /tempo /beat /quantum /thresh;
#X floatatom 1151 577 5 0 0 0 - - - 0;
#X floatatom 1281 575 5 0 0 0 - - - 0;
#X obj 987 654 expr if($f1 < $f2 \, 0 \, if($f1 < $f3 \, 1 \, 2));
#X obj 987 690 select 0 1 2, f 56;
#X msg 675 557 -0.166756;
#X msg 674 518 set \$1;
#X obj 1288 421 loadbang;
#X msg 1256 488 0.2;
#X msg 1305 491 2;
#X obj 697 -65 loadbang;
#X msg 714 5 2000;
#X connect 0 0 1 0;
#X connect 0 1 5 0;
#X connect 1 0 2 0;
#X connect 2 0 3 0;
#X connect 3 0 4 0;
#X connect 3 0 4 1;
#X connect 5 0 3 0;
#X connect 6 0 7 0;
#X connect 6 1 10 0;
#X connect 7 0 11 0;
#X connect 8 0 9 0;
#X connect 8 0 9 1;
#X connect 10 0 8 0;
#X connect 11 0 8 0;
#X connect 12 0 22 0;
#X connect 13 0 22 0;
#X connect 14 0 22 0;
#X connect 15 0 14 0;
#X connect 19 0 36 0;
#X connect 21 0 27 0;
#X connect 22 0 19 0;
#X connect 22 1 17 0;
#X connect 22 2 16 0;
#X connect 22 2 41 1;
#X connect 22 3 20 0;
#X connect 22 3 48 1;
#X connect 23 0 12 0;
#X connect 24 0 15 1;
#X connect 25 0 15 0;
#X connect 26 0 13 0;
#X connect 27 0 22 0;
#X connect 29 0 28 0;
#X connect 31 0 32 0;
#X connect 32 0 22 0;
#X connect 33 0 34 0;
#X connect 34 0 22 0;
#X connect 35 0 0 0;
#X connect 35 1 6 0;
#X connect 35 2 6 0;
#X connect 35 3 6 0;
#X connect 36 0 35 0;
#X connect 37 0 38 0;
#X connect 38 0 51 0;
#X connect 39 0 47 0;
#X connect 40 0 54 0;
#X connect 41 0 42 0;
#X connect 41 0 50 0;
#X connect 42 0 40 0;
#X connect 43 0 25 0;
#X connect 45 0 56 0;
#X connect 46 0 43 0;
#X connect 47 0 43 0;
#X connect 48 0 49 0;
#X connect 49 0 23 0;
#X connect 50 0 57 0;
#X connect 51 1 39 0;
#X connect 51 1 41 0;
#X connect 52 0 54 1;
#X connect 53 0 54 2;
#X connect 54 0 55 0;
#X connect 55 0 44 0;
#X connect 55 1 45 0;
#X connect 55 2 46 0;
#X connect 56 0 48 0;
#X connect 57 0 56 0;
#X connect 58 0 59 0;
#X connect 58 0 60 0;
#X connect 59 0 52 0;
#X connect 60 0 53 0;
#X connect 61 0 62 0;
#X connect 62 0 24 0;